<?xml version="1.0" encoding="UTF-8" standalone="no"?>
<!-- Created with Inkscape (http://www.inkscape.org/) -->

<svg
   width="710.58472mm"
   height="722.48004mm"
   viewBox="0 0 710.58472 722.48004"
   version="1.1"
   id="svg5"
   xmlns="http://www.w3.org/2000/svg"
   xmlns:svg="http://www.w3.org/2000/svg">
  <defs
     id="defs2" />
  <g
     id="layer1"
     transform="translate(573.66969,403.53899)">
    <path
       style="opacity:0.75;fill:#f5370a;fill-opacity:1;stroke-width:1"
       id="path234"
       d="m -13.744915,209.98336 -116.293465,-35.41445 -95.10212,75.72278 -2.25552,-121.54532 -101.40482,-67.04787 114.89948,-39.704699 32.4305,-117.160639 73.2673,97.0064716 121.44797,-5.3613909 -69.617795,99.6579953 z"
       transform="rotate(75,-145.89747,1.7734089)" />
    <path
       style="opacity:0.75;fill:none;stroke-width:1"
       id="path236"
       d="m 136.91503,136.32572 -253.08359,-16.50945 -157.07707,199.12474 -62.50571,-245.798501 -237.91837,-87.856241 214.45294,-135.402378 10.03543,-253.42288 195.04492,162.11523 244.120602,-68.76772 -93.9085531,235.595101 z" />
    <path
       style="opacity:0.75;fill:#f5370a;fill-opacity:1;stroke-width:1"
       id="path900"
       d="m -13.744915,209.98336 -116.293465,-35.41445 -95.10212,75.72278 -2.25552,-121.54532 -101.40482,-67.04787 114.89948,-39.704699 32.4305,-117.160639 73.2673,97.0064716 121.44797,-5.3613909 -69.617795,99.6579953 z"
       transform="matrix(0,-0.43160736,0.43160736,0,-277.34687,-304.29591)" />
  </g>
</svg>
